HIERARCHY
ROOT Hips
{
  OFFSET 40.5958 101.32 250.584
  CHANNELS 6 Xposition Yposition Zposition Zrotation Xrotation Yrotation
  JOINT RightUpLeg
  {
    OFFSET -8.9458 -8.66707 0.101652
    CHANNELS 3 Zrotation Xrotation Yrotation
    JOINT RightLeg
    {
      OFFSET 0 -44.4227 1.3727
      CHANNELS 3 Zrotation Xrotation Yrotation
      JOINT RightFoot
      {
        OFFSET 0.253549 -42.0924 -1.46059
        CHANNELS 3 Zrotation Xrotation Yrotation
        JOINT RightToes
        {
          OFFSET 0.04 -4.41509 8.4991
          CHANNELS 3 Zrotation Xrotation Yrotation
          End Site
          {
            OFFSET -0.08 -0.137448 9.77979
          }
        }
      }
    }
  }
  JOINT Spine
  {
    OFFSET 0 11.8905 0
    CHANNELS 3 Zrotation Xrotation Yrotation
    JOINT Spine1
    {
      OFFSET 0 25.6574 0.127663
      CHANNELS 3 Zrotation Xrotation Yrotation
      JOINT HEad
      {
        OFFSET 0 8.73416 0.011341
        CHANNELS 3 Zrotation Xrotation Yrotation
        End Site
        {
          OFFSET -0.29 12.7742 2.51395
        }
      }
      JOINT LeftShoulder1
      {
        OFFSET 8.99 -0.362252 -0.22
        CHANNELS 3 Zrotation Xrotation Yrotation
        JOINT LeftArm
        {
          OFFSET 10.2827 -0.00338 0.322123
          CHANNELS 3 Zrotation Xrotation Yrotation
          JOINT LeftForeArm
          {
            OFFSET 32.7669 0.099144 -1.42434
            CHANNELS 3 Zrotation Xrotation Yrotation
            JOINT LeftHand
            {
              OFFSET 27.5643 0.085362 1.02216
              CHANNELS 3 Zrotation Xrotation Yrotation
              End Site
              {
                OFFSET 16.7443 -0.6 1.50291
              }
            }
          }
        }
      }
      JOINT RightShoulder
      {
        OFFSET -8.99 -0.362252 -0.22
        CHANNELS 3 Zrotation Xrotation Yrotation
        JOINT RightArm
        {
          OFFSET -10.2827 -0.00338 0.322123
          CHANNELS 3 Zrotation Xrotation Yrotation
          JOINT RightForeArm
          {
            OFFSET -32.8971 0.099144 -1.42434
            CHANNELS 3 Zrotation Xrotation Yrotation
            JOINT RightHand
            {
              OFFSET -27.4921 0.085362 1.02216
              CHANNELS 3 Zrotation Xrotation Yrotation
              End Site
              {
                OFFSET -16.6312 -0.6 1.50291
              }
            }
          }
        }
      }
    }
  }
  JOINT LeftUpLeg
  {
    OFFSET 8.9458 -8.66707 0.101652
    CHANNELS 3 Zrotation Xrotation Yrotation
    JOINT LeftLeg
    {
      OFFSET 0 -44.4227 1.3727
      CHANNELS 3 Zrotation Xrotation Yrotation
      JOINT LeftFoot
      {
        OFFSET -0.253549 -42.0924 -1.46059
        CHANNELS 3 Zrotation Xrotation Yrotation
        JOINT LeftToes
        {
          OFFSET -0.04 -4.41509 8.4991
          CHANNELS 3 Zrotation Xrotation Yrotation
          End Site
          {
            OFFSET 0.08 -0.047448 9.77979
          }
        }
      }
    }
  }
}
MOTION
Frames:	17
Frame Time:	0.0166667
59.5018 101.436 233.878 12.514 5.95231 119.187 -25.2066 4.11952 18.6528 40.5632 15.5067 -33.2426 -28.0862 -0.611606 -1.55194 0.0462048 0.000533403 0.662642 -2.74335 24.3035 -4.15874 -5.87861e-006 -3.47197e-007 -0.00978837 -14.5866 24.5541 14.1635 0 1.59028e-015 -0 175.802 -55.5741 -146.558 -118.412 72.2734 -11.2468 21.5254 20.9784 -4.5215 12.4696 11.0564 -0.37683 106.521 -14.4191 77.8962 3.11855 49.4991 112.835 18.6221 13.8546 4.46536 17.6694 -4.45078 -16.9104 -20.3633 12.0835 55.4905 -4.4339 -3.61401 -0.363152 -1.18446e-009 1.5602e-007 -4.87131e-009 
59.6661 101.179 233.762 12.4649 5.70435 119.219 -24.7778 4.67524 19.759 41.7254 12.6848 -33.2788 -41.7042 -0.000911081 -1.85712 0.0462048 0.000533403 0.662642 -2.89654 24.3829 -3.80076 -5.87861e-006 -3.47197e-007 -0.00978837 -18.1767 28.1624 16.8763 3.18055e-015 3.18055e-015 -6.36111e-015 176.738 -55.1693 -145.291 -117.502 73.2369 -10.8733 21.1264 20.6017 -4.28169 12.4624 10.9698 -0.272646 107.019 -13.7281 78.2738 1.64189 49.6504 113.686 18.5437 14.4956 3.93295 17.0078 -4.73559 -15.9159 -19.1194 13.4963 54.1011 -5.05555 -4.03397 -0.492877 -1.18447e-009 1.5602e-007 -4.87132e-009 
59.7832 101.2 233.645 12.3809 5.54809 119.266 -26.0244 4.76997 21.2723 41.5591 11.7937 -33.7855 -31.4216 -0.793896 -1.73966 0.0462048 0.000533403 0.662642 -3.19991 24.4386 -3.39223 -5.87861e-006 -3.47197e-007 -0.00978837 -21.4439 31.1342 19.4913 1.59028e-015 -2.38542e-015 -9.54166e-015 177.842 -54.7323 -143.991 -115.767 73.9981 -11.1482 21.1231 20.2117 -4.46025 12.3737 10.8829 -0.256048 107.588 -12.9369 78.6029 0.658031 49.7902 114.268 18.3407 13.9383 3.64178 16.0184 -4.24844 -15.0723 -16.9642 13.3884 52.4674 -5.26855 -3.70111 -0.392032 -1.18446e-009 1.5602e-007 -4.87131e-009 
59.8717 101.125 233.664 12.2671 5.47407 119.323 -26.8311 5.0525 22.6354 41.2172 10.4681 -34.384 -21.4692 -1.33807 -1.37227 0.0462048 0.000533403 0.662642 -3.6207 24.4689 -2.95752 -5.87861e-006 -3.47197e-007 -0.00978837 -24.3417 33.5194 21.9285 -1.59028e-015 -7.95139e-016 -3.18055e-015 179.035 -54.2801 -142.695 -113.701 74.6147 -11.7125 20.6652 19.8499 -4.59856 12.1252 10.7901 -0.337012 108.274 -12.0786 79.0865 0.51311 49.6378 114.212 18.4482 14.7482 2.9263 15.2029 -4.00215 -14.2789 -15.2855 13.3992 51.151 -5.43676 -3.49801 -0.336722 -1.18446e-009 1.5602e-007 -4.87132e-009 
59.9471 101.002 233.829 12.1321 5.46827 119.388 -27.3322 5.55491 23.852 40.5101 8.97223 -34.9965 -11.5893 -1.62938 -0.948114 0.0462048 0.000533403 0.662642 -4.12272 24.4752 -2.5144 -5.87861e-006 -3.47197e-007 -0.00978837 -26.8294 35.3786 24.1099 -8.82781e-032 1.59028e-015 3.18055e-015 -179.769 -53.8355 -141.458 -111.491 75.1052 -12.4937 20.4882 19.5397 -4.8801 11.8622 10.6905 -0.48082 108.905 -11.3142 79.7519 1.21955 49.1446 113.477 18.961 14.7379 2.26096 14.5346 -4.00865 -13.536 -14.0016 13.6612 50.1255 -5.63417 -3.43604 -0.325145 -1.18447e-009 1.5602e-007 -4.87132e-009 
60.0285 100.855 234.148 11.9863 5.51615 119.457 -27.5987 6.27699 24.9205 39.3579 7.45676 -35.6195 -1.68884 -1.69635 -0.536198 0.0462048 0.000533403 0.662642 -4.68025 24.4658 -2.07039 -5.87861e-006 -3.47197e-007 -0.00978837 -28.8584 36.7714 25.9616 1.59028e-015 0 -9.54166e-015 -178.651 -53.4204 -140.326 -109.417 75.5086 -13.283 20.0629 19.3029 -5.04279 11.6851 10.5812 -0.580311 109.433 -10.6074 80.5295 2.13495 48.6319 112.159 19.6157 15.4958 1.5823 14.0062 -4.26101 -12.8486 -13.0417 14.2446 49.3594 -5.90895 -3.51482 -0.352175 -1.18446e-009 1.5602e-007 -4.87131e-009 
60.1345 100.685 234.617 11.8381 5.60841 119.532 -27.6531 7.19821 25.832 37.7612 5.9918 -36.2815 8.22034 -1.56011 -0.182176 0.0462048 0.000533403 0.662642 -5.26363 24.454 -1.63405 -5.87861e-006 -3.47197e-007 -0.00978837 -29.2273 36.6886 26.3799 8.82781e-032 7.95139e-016 -6.36111e-015 -177.688 -53.0463 -139.351 -107.599 75.8295 -13.9937 19.8391 19.1154 -5.22892 11.4862 10.4571 -0.577559 109.862 -10.4457 81.7379 4.55372 47.1275 109.331 20.3712 16.4583 1.11354 13.6216 -4.73005 -12.2266 -12.3566 15.1514 48.8212 -6.27715 -3.71907 -0.411281 -1.18447e-009 1.5602e-007 -4.87132e-009 
60.2736 100.482 235.221 11.6993 5.73238 119.612 -27.4883 8.29257 26.5756 35.7572 4.60842 -37.014 18.0857 -1.24035 0.0704639 0.0462048 0.000533403 0.662642 -5.86697 24.4475 -1.20506 -5.87861e-006 -3.47197e-007 -0.00978837 -28.0385 35.3778 25.4415 1.59028e-015 -7.95139e-016 -6.36111e-015 -176.895 -52.7229 -138.562 -106.154 76.0799 -14.5122 19.4967 18.9767 -5.31505 11.5388 10.3297 -0.586983 110.093 -10.0767 82.6705 5.81423 46.4769 107.015 21.8646 16.7648 1.39016 13.3921 -5.3722 -11.6807 -11.9179 16.3323 48.4857 -6.72347 -4.02307 -0.4959 -1.18446e-009 1.5602e-007 -4.87131e-009 
60.4478 100.235 235.934 11.5784 5.87899 119.697 -27.0874 9.53111 27.1371 33.3884 3.32585 -37.8449 27.8499 -0.75731 0.178416 0.0462048 0.000533403 0.662642 -6.45946 24.4539 -0.793984 0.00354626 0.00108955 -0.00978837 -25.5942 32.9681 23.3916 -0 0 3.18055e-015 -176.299 -52.4545 -137.966 -105.071 76.2542 -14.8351 19.2966 18.8538 -5.41187 11.5427 10.1944 -0.550684 110.28 -10.1551 83.8338 8.04846 44.8305 103.83 21.625 18.4732 1.18233 13.3212 -6.13758 -11.2205 -11.7126 17.7094 48.3346 -7.21268 -4.39756 -0.600307 -1.18447e-009 1.5602e-007 -4.87131e-009 
60.6217 100.325 236.684 11.5484 6.10141 119.772 -25.99 10.7854 27.3337 30.0062 2.71735 -38.0033 37.9501 -0.16814 0.0878228 0.0462048 0.000533403 0.662642 -6.62934 23.9834 -0.664836 0.0301067 -0.0371106 -0.00978837 -23.4469 30.9668 21.6195 8.82781e-032 7.95139e-016 -6.36111e-015 -175.003 -52.4642 -137.575 -104.617 76.6609 -15.9613 17.5104 20.8486 -9.84008 14.0216 7.80759 -0.198799 108.054 -13.257 83.522 11.9803 43.9334 100.071 15.1837 21.8873 2.86943 13.1384 -7.31214 -10.5093 -11.1699 19.6657 46.4239 -6.9808 -4.87943 -0.694288 -1.18446e-009 1.5602e-007 -4.87131e-009 
60.6214 100.301 237.58 11.6238 6.39605 119.836 -24.2334 12.0392 27.139 25.5915 2.56804 -37.5078 48.3044 0.579515 -0.323131 0.0462048 0.000533403 0.662642 -6.35241 23.1016 -0.831564 0.0329387 -0.0377407 -0.00978837 -21.4876 29.3087 20.0275 1.59028e-015 0 -0 -172.993 -52.6698 -137.177 -104.964 77.3304 -17.5418 14.9137 23.6884 -15.2297 18.6314 4.08625 0.401229 103.434 -18.2538 81.8298 16.8459 43.9361 96.3576 5.2999 25.9758 5.43394 12.9052 -8.85422 -9.5812 -10.6524 22.1637 42.9926 -6.26152 -5.38098 -0.72012 -1.18447e-009 1.5602e-007 -4.87131e-009 
60.4794 100.23 238.564 11.7847 6.75743 119.874 -21.8757 13.3745 26.535 20.0392 2.50658 -36.352 58.8748 1.48807 -1.218 0.0462048 0.000533403 0.662642 -5.66717 21.8507 -1.27077 0.0312886 -0.0343807 -0.0105685 -19.6966 27.9959 18.6033 1.59028e-015 -2.38542e-015 -3.18055e-015 -170.2 -53.0259 -136.581 -105.676 78.2432 -19.6169 11.7003 26.6392 -20.0347 24.8152 -0.284011 1.31552 96.4657 -24.2185 78.9077 22.5717 44.7003 92.5822 -0.148273 27.9525 7.00197 12.7194 -10.6672 -8.43936 -10.3587 25.2306 38.2442 -6.12957 -5.83439 -0.799684 -1.18446e-009 1.5602e-007 -4.8713e-009 
60.2015 100.097 239.548 12.1767 7.16193 119.82 -18.5523 14.8772 24.8834 12.5784 2.41311 -32.5619 70.1586 2.55112 -2.88303 0.0462048 0.000533403 0.662642 -3.68746 19.4113 -2.59581 0.0827946 -0.0799328 -0.0419569 -18.1463 27.912 17.6339 7.95139e-016 3.97569e-016 -0 -164.726 -53.7831 -135.331 -106.079 79.432 -23.1908 6.06128 28.0274 -21.187 34.3037 -5.39474 2.82835 83.8148 -32.6128 73.5721 31.6673 47.5648 87.6316 3.81194 26.4812 4.65333 12.373 -13.1679 -6.54569 -10.5443 30.7562 29.9139 -6.23557 -5.77257 -0.944369 -1.18446e-009 1.5602e-007 -4.87132e-009 
59.7685 99.9393 240.485 12.7127 7.53681 119.621 -15.8631 16.3209 22.632 6.02009 0.734098 -26.8192 80.9171 3.72155 -5.13404 0.0462048 0.000533403 0.662642 -0.740885 15.9844 -4.64232 0.0721342 -0.057043 -0.0456981 -16.6984 28.8313 17.0139 1.98785e-016 4.96962e-017 -1.27222e-014 -156.474 -54.2607 -133.169 -99.7288 79.629 -32.3964 2.28175 26.7052 -18.1448 43.0892 -9.42426 3.73538 68.7258 -39.9532 67.4438 43.6056 50.7259 80.8795 -0.0887449 26.8317 4.37318 11.7492 -16.29 -3.92638 -9.19265 38.8286 18.8383 -10.4668 -5.35917 -1.3677 -1.18447e-009 1.5602e-007 -4.87131e-009 
59.1414 99.7186 241.315 13.3077 7.77217 119.217 -15.5552 14.5578 20.2908 5.96648 1.90091 -18.5565 89.3351 3.72176 -5.12186 0.0462048 0.000533403 0.662642 2.93765 11.8345 -7.28788 0.0649039 -0.0253332 -0.0484499 -15.5261 30.6222 16.853 1.59028e-015 1.98785e-016 -3.18055e-015 -145.872 -53.9581 -130.106 -89.0527 78.1545 -42.1382 -4.15037 24.8319 -13.9082 40.6862 -5.58874 2.30829 68.1206 -44.6925 69.0928 50.9668 53.2874 76.0637 1.06144 25.3253 3.06433 10.9842 -20.1707 -0.668958 -4.84369 47.3452 5.16532 -14.5727 -4.61708 -1.48378 -1.18447e-009 1.5602e-007 -4.87131e-009 
58.24 100.762 241.735 13.9207 7.75756 118.562 -13.8843 9.06572 16.8101 6.35484 9.07693 -9.67282 68.3355 3.03475 -2.69769 0.0462048 0.000533403 0.662642 7.07026 7.2803 -10.4994 0.0522431 0.0032464 -0.0549415 -14.6638 33.2356 17.2614 1.59028e-015 0 3.18055e-015 -135.04 -53.8783 -127.122 -83.3574 76.2375 -46.0215 5.73596 21.2347 -3.30252 37.5792 -0.980209 1.64013 67.2575 -47.1007 69.8315 55.0111 55.3047 72.7046 -2.00818 25.1977 2.96512 10.3905 -21.9098 2.63191 1.57101 51.2447 -10.1047 -18.0708 -2.34716 -1.12004 -1.18447e-009 1.5602e-007 -4.87131e-009 
57.1467 101.614 242.028 14.8719 6.97089 115.751 -9.92659 1.2449 14.3545 4.85416 21.6457 -1.2424 46.8831 -0.353923 0.992178 0.0462048 0.000533403 0.662642 11.8844 3.62912 -12.1789 0.040612 0.0355358 -0.0645133 -13.7235 36.2536 17.7752 -6.36111e-015 0 -0 -124.556 -54.1451 -124.979 -80.3854 73.1518 -45.7942 -5.20318 18.6154 -8.92324 33.6806 3.58095 1.75888 66.678 -47.5867 70.238 56.8861 56.8001 70.4112 -1.80326 23.7904 2.51875 11.698 -22.9 7.86364 8.23585 52.9025 -23.803 -21.6349 -0.599895 -0.813457 -1.18448e-009 1.5602e-007 -4.87131e-009 
